<svg version="1.1" id="Layer_1" xmlns="http://www.w3.org/2000/svg" xmlns:xlink="http://www.w3.org/1999/xlink" x="0px" y="0px" viewBox="0 0 511.982 511.982" style="enable-background:new 0 0 511.982 511.982;" xml:space="preserve">
	<g>
		<path style="fill:#8AC054;" d="M28.202,108.105c78.263,32.624,51.061,91.418,51.061,91.418
			C13.249,204.712,28.202,108.105,28.202,108.105z"/>
		<path style="fill:#8AC054;" d="M138.745,135.682c18.593,96.09-55.295,107.481-55.295,107.481
			C36.31,182.993,138.745,135.682,138.745,135.682z"/>
		<path style="fill:#8AC054;" d="M0,227.79c95.388-7.859,98.605,65.17,98.605,65.17C35.108,332.396,0,227.79,0,227.79z"/>
		<path style="fill:#8AC054;" d="M136.995,234.21c63.357,80.044,0.406,126.059,0.406,126.059
			C64.856,327.192,136.995,234.21,136.995,234.21z"/>
		<path style="fill:#8AC054;" d="M21.999,340.848c109.402-42.029,138.276,42.732,138.276,42.732
			C99.199,451.751,21.999,340.848,21.999,340.848z"/>
		<path style="fill:#8AC054;" d="M176.525,316.521c90.872,46.249,52.92,114.277,52.92,114.277
			C149.807,431.016,176.525,316.521,176.525,316.521z"/>
	</g>
	<path style="fill:#79AA41;" d="M353.487,474.266c-0.578,0-1.172-0.047-1.781-0.142c-120.917-20.296-204.961-68.138-249.788-142.183
		c-14.327-23.687-24.53-50.03-30.296-78.31c-4.594-22.515-6.406-46.311-5.391-70.701c1.734-41.499,11.016-70.294,11.406-71.498
		c1.828-5.609,7.859-8.656,13.453-6.828c5.593,1.828,8.655,7.844,6.827,13.437l0,0c-0.094,0.281-8.874,27.749-10.405,66.529
		c-1.375,35.358,3.188,87.747,32.765,136.511c41.498,68.388,120.559,112.809,234.96,131.995c5.813,0.984,9.734,6.484,8.767,12.281
		C363.128,470.579,358.613,474.266,353.487,474.266z"/>
	<g>
		<path style="fill:#9ED36A;" d="M428.548,243.163c12.187-15.562,14.374-30.25,10.921-43.483
			c58.232-1.75,44.327-91.575,44.327-91.575c-47.67,19.858-56.217,49.451-55.607,69.544c-19.609-25.656-54.936-41.967-54.936-41.967
			C354.659,231.773,428.548,243.163,428.548,243.163z"/>
		<path style="fill:#9ED36A;" d="M413.392,292.96c10.076,6.265,19.437,8.891,28.046,8.891c45.701,0,70.544-74.061,70.544-74.061
			c-4.859-0.407-9.5-0.594-13.905-0.594C416.283,227.195,413.392,292.96,413.392,292.96z"/>
		<path style="fill:#9ED36A;" d="M402.611,334.208c18.374-40.733-27.608-99.997-27.608-99.997
			c-51.843,65.499-19.108,108.215-5.5,121.574c-13.016,13.797-17.78,27.796-17.78,27.796c14.358,16.016,29.607,22.156,44.545,22.156
			c48.576,0,93.747-64.889,93.747-64.889c-21.75-8.343-40.312-11.688-56.092-11.688C421.955,329.161,411.564,331.083,402.611,334.208
			z"/>
		<path style="fill:#9ED36A;" d="M279.771,430.799c79.544-6.75,42.843-118.715,42.843-118.715
			C235.929,366.206,279.771,430.799,279.771,430.799z"/>
	</g>
	<path style="fill:#8AC054;" d="M158.51,474.266c-5.109,0-9.64-3.688-10.515-8.906c-0.969-5.797,2.953-11.297,8.766-12.281
		c114.511-19.218,193.618-63.686,235.069-132.183c29.64-48.968,34.093-101.56,32.625-137.074
		c-1.61-38.593-10.281-65.498-10.375-65.764c-1.828-5.594,1.234-11.625,6.827-13.453c5.594-1.828,11.625,1.219,13.452,6.828
		c0.391,1.204,9.672,29.999,11.406,71.498c1.016,24.39-0.797,48.186-5.39,70.701c-5.767,28.279-15.969,54.639-30.296,78.31
		c-44.825,74.045-128.87,121.887-249.788,142.183C159.681,474.22,159.088,474.266,158.51,474.266z"/>
	<path style="fill:#9ED36A;" d="M426.845,122.402c34.765-52.592-52.592-84.685-52.592-84.685
		C365.331,117.95,426.845,122.402,426.845,122.402z"/>
	<path style="fill:#8AC054;" d="M137.745,37.718c8.922,80.232-52.592,84.685-52.592,84.685
		C50.388,69.81,137.745,37.718,137.745,37.718z"/>
</svg>
