<svg id="line" enable-background="new 0 0 36 36" height="512" viewBox="0 0 36 36" width="512" xmlns="http://www.w3.org/2000/svg"><g><path d="m31.833 27.623c0-6.917 3.583-11.667 3.583-15s-1.916-10.333-17.249-10.333-17.584 9.417-17.584 13.083c0 17.167 31.25 24.5 31.25 12.25z" fill="#efefef"/></g><g><path d="m27.305 3.467h1v2h-1z" fill="#a4afc1" transform="matrix(.707 -.707 .707 .707 4.985 20.97)"/></g><g><path d="m31.371 7.533h1v2h-1z" fill="#a4afc1" transform="matrix(.707 -.707 .707 .707 3.301 25.036)"/></g><g><path d="m30.694 3.967h2v1h-2z" fill="#a4afc1" transform="matrix(.707 -.707 .707 .707 6.125 23.72)"/></g><g><path d="m5 16.5c-.827 0-1.5-.673-1.5-1.5s.673-1.5 1.5-1.5 1.5.673 1.5 1.5-.673 1.5-1.5 1.5zm0-2c-.276 0-.5.224-.5.5s.224.5.5.5.5-.224.5-.5-.224-.5-.5-.5z" fill="#a4afc1"/></g><g><path d="m15.5 13.25 9 16h-17.75z" fill="#2fdf84"/></g><g><path d="m21.673 24.316 2.327-4.566 5.25 9.5h-4.75z" fill="#2fdf84"/></g><g><path d="m15.5 6.75h5.75l-1.5 1.75 1.5 1.75h-5.75z" fill="#f3f3f1"/></g><g><path d="m15.5 6.75h2.25v3.5h-2.25z" fill="#d5dbe1"/></g><g><path d="m15.5 13.25-8.75 16h2.125l7.702-14.085z" fill="#00b871"/></g><g><path d="m25.105 21.75-1.105-2-2.327 4.566 2.827 4.934h2.125l-2.827-4.934z" fill="#00b871"/></g><g><path d="m24.5 30h-17.75c-.265 0-.51-.14-.645-.368s-.14-.51-.013-.742l2.871-5.25 1.316.72-2.264 4.14h15.203l-7.708-13.704-4.273 7.814-1.316-.72 4.922-9c.131-.239.381-.389.654-.39.249-.007.524.145.658.382l9 16c.13.232.128.516-.006.746-.136.23-.382.372-.649.372z"/></g><g><path d="m29.25 30h-4.75v-1.5h3.479l-3.952-7.151-1.687 3.308-1.336-.682 2.328-4.566c.126-.247.378-.404.655-.409.307.003.536.145.669.387l5.25 9.5c.128.232.125.515-.01.744s-.38.369-.646.369z"/></g><g><path d="m16.25 13.25h-1.5v-6.5c0-.414.336-.75.75-.75h5.75c.293 0 .559.17.681.437.123.266.079.579-.112.802l-1.081 1.261 1.082 1.262c.191.223.234.536.112.802-.123.266-.389.436-.682.436h-5zm0-3.75h3.369l-.438-.512c-.241-.281-.241-.695 0-.977l.438-.511h-3.369z"/></g><g><path d="m17 21c-.192 0-.385-.074-.53-.22l-.97-.97-.97.97c-.273.274-.71.294-1.008.048l-1.43-1.18.955-1.157.904.747 1.018-1.018c.293-.293.768-.293 1.061 0l1.018 1.018.904-.747.955 1.157-1.43 1.18c-.139.115-.308.172-.477.172z"/></g><g><path d="m2 28.5h32v1.5h-32z"/></g></svg>