<svg id="line" enable-background="new 0 0 36 36" height="512" viewBox="0 0 36 36" width="512" xmlns="http://www.w3.org/2000/svg"><g><path d="m31.833 8.377c0 6.917 3.583 11.667 3.583 15s-1.916 10.333-17.249 10.333-17.584-9.417-17.584-13.083c0-17.167 31.25-24.5 31.25-12.25z" fill="#efefef"/></g><g><path d="m28 30.5c-.827 0-1.5-.673-1.5-1.5s.673-1.5 1.5-1.5 1.5.673 1.5 1.5-.673 1.5-1.5 1.5zm0-2c-.276 0-.5.224-.5.5s.224.5.5.5.5-.224.5-.5-.224-.5-.5-.5z" fill="#a4afc1"/></g><g><path d="m9.033 4.467h2v1h-2z" fill="#a4afc1" transform="matrix(.707 -.707 .707 .707 -.574 8.549)"/></g><g><path d="m4.967 8.533h2v1h-2z" fill="#a4afc1" transform="matrix(.707 -.707 .707 .707 -4.64 6.865)"/></g><g><path d="m5.644 3.967h1v2h-1z" fill="#a4afc1" transform="matrix(.707 -.707 .707 .707 -1.713 5.799)"/></g><g><path d="m23.236 19.617c0 3.123-1.237 6.128-3.454 8.345l-.035.035-.67-4.677z" fill="#f3f3f1"/></g><g><path d="m16.383 12.764c-3.123 0-6.128 1.237-8.345 3.454l-.035.035 4.677.67z" fill="#f3f3f1"/></g><g><ellipse cx="23.133" cy="12.867" fill="#f3f3f1" rx="1.75" ry="1.75" transform="matrix(.707 -.707 .707 .707 -2.323 20.126)"/></g><g><path d="m16.305 12.85-4.706 5.272 6.279 6.279 5.272-4.706c3.609-3.084 6.207-8.196 6.096-12.942-4.746-.11-9.857 2.488-12.941 6.097zm5.59 1.255c-.683-.683-.683-1.791 0-2.475s1.791-.683 2.475 0c.683.683.683 1.791 0 2.475-.683.683-1.791.683-2.475 0z" fill="#2fdf84"/></g><g><path d="m12.545 26.857c-.939.939-5.795 2.393-5.795 2.393s1.454-4.856 2.393-5.795 2.463-.939 3.402 0c.94.939.94 2.462 0 3.402z" fill="#2fdf84"/></g><g><path d="m21.327 23.32 1.699-1.513c.136-.718.21-1.45.21-2.19l-4.159 3.703.67 4.677.035-.035c.735-.735 1.35-1.562 1.86-2.445z" fill="#d5dbe1"/></g><g><path d="m10.253 16.253.035-.035c1.617-1.617 3.656-2.706 5.851-3.18l.244-.274c-3.123 0-6.128 1.237-8.345 3.454l-.035.035 4.677.67.255-.286z" fill="#d5dbe1"/></g><g><path d="m24.145 14.105c-.683-.683-.683-1.791 0-2.475.035-.035.075-.06.112-.092-.688-.582-1.714-.557-2.362.092-.683.683-.683 1.791 0 2.475.648.648 1.675.674 2.362.092-.036-.032-.077-.057-.112-.092z" fill="#d5dbe1"/></g><g><path d="m11.393 23.455c.173-.173.37-.303.576-.413-.909-.484-2.06-.354-2.826.413-.939.939-2.393 5.795-2.393 5.795s1.193-.358 2.511-.832c.461-1.429 1.437-4.268 2.132-4.963z" fill="#00b871"/></g><g><path d="m13.724 18.122 4.706-5.272c2.627-3.074 6.725-5.408 10.815-5.966-.001-.043.003-.087.002-.131-4.746-.11-9.858 2.487-12.942 6.096l-4.706 5.272 6.279 6.279 1.123-1.002z" fill="#00b871"/></g><g><path d="m17.878 25.151c-.192 0-.384-.074-.53-.22l-1.378-1.378 1.061-1.061.877.877 4.743-4.234c3.399-2.904 5.678-7.487 5.84-11.626-4.139.163-8.721 2.441-11.615 5.828l-4.245 4.755 3.128 3.128-1.061 1.061-3.629-3.629c-.281-.281-.294-.733-.029-1.03l4.706-5.271c3.333-3.901 8.743-6.454 13.519-6.347.4.009.723.332.732.732.11 4.748-2.445 10.185-6.359 13.529l-5.259 4.695c-.144.128-.322.191-.501.191z"/></g><g><path d="m19.749 28.727c-.075 0-.15-.011-.221-.035-.27-.09-.482-.307-.522-.588l-.67-4.677 1.484-.213.438 3.058c1.454-1.923 2.229-4.229 2.229-6.654h1.5c0 3.354-1.305 6.506-3.674 8.875-.148.147-.357.234-.564.234z"/></g><g><path d="m12.574 17.665-4.677-.67c-.282-.04-.517-.237-.606-.508s-.017-.568.186-.769c2.4-2.4 5.552-3.705 8.906-3.705v1.5c-2.437 0-4.752.782-6.66 2.228l3.064.439z"/></g><g><path d="m23.133 15.366c-.641 0-1.281-.244-1.768-.731-.974-.975-.974-2.561 0-3.536.975-.975 2.561-.975 3.536 0 .974.975.974 2.561 0 3.536-.488.488-1.128.731-1.768.731zm0-3.498c-.256 0-.513.097-.708.292-.39.39-.39 1.024 0 1.415.389.39 1.025.39 1.414 0 .39-.39.39-1.024 0-1.414-.194-.196-.45-.293-.706-.293z"/></g><g><path d="m6.75 30c-.196 0-.388-.077-.53-.22-.195-.195-.267-.481-.188-.746.251-.841 1.56-5.089 2.582-6.11 1.193-1.192 3.271-1.191 4.462 0 .596.597.924 1.389.924 2.232s-.328 1.635-.924 2.231c-1.021 1.021-5.27 2.33-6.11 2.582-.071.021-.144.031-.216.031zm4.095-6.499c-.424 0-.848.161-1.171.484-.436.436-1.187 2.364-1.771 4.112 1.748-.584 3.676-1.335 4.112-1.771.646-.646.646-1.696 0-2.341-.323-.323-.746-.484-1.17-.484z"/></g></svg>