<svg version="1.1" id="Layer_1" xmlns="http://www.w3.org/2000/svg" xmlns:xlink="http://www.w3.org/1999/xlink" x="0px" y="0px" viewBox="0 0 511.982 511.982" style="enable-background:new 0 0 511.982 511.982;" xml:space="preserve">
	<path style="fill:#A85D5D;" d="M255.992,187.993c-5.89,0-10.671-4.773-10.671-10.663V10.663c0-5.89,4.781-10.663,10.671-10.663
		c5.89,0,10.657,4.773,10.657,10.663V177.33C266.649,183.22,261.883,187.993,255.992,187.993z"/>
	<g>
		<path style="fill:#965353;" d="M211.65,176.119c-1.813,0-3.641-0.461-5.328-1.43c-5.094-2.945-6.843-9.469-3.906-14.57
			l83.216-144.12c2.938-5.102,9.469-6.852,14.563-3.906c5.108,2.945,6.843,9.469,3.905,14.57l-83.2,144.12
			C218.916,174.205,215.338,176.119,211.65,176.119z"/>
		<path style="fill:#965353;" d="M300.336,176.119c-3.688,0-7.281-1.914-9.25-5.336l-83.201-144.12
			c-2.953-5.102-1.203-11.625,3.891-14.57c5.109-2.945,11.625-1.195,14.578,3.906l83.201,144.12
			c2.953,5.102,1.203,11.625-3.906,14.57C303.976,175.658,302.147,176.119,300.336,176.119z"/>
	</g>
	<path style="fill:#FFD2A6;" d="M481.11,492.905L265.523,61.748c-2.624-5.25-6.077-7.875-9.531-7.875
		c-3.468,0-6.921,2.625-9.546,7.875L30.875,492.905c-5.25,10.483,0.047,19.077,11.781,19.077h426.658
		C481.048,511.982,486.36,503.388,481.11,492.905z"/>
	<g>
		<path style="fill:#EC5564;" d="M96.107,469.328c-2.718,0-5.453-1.063-7.531-3.126c-4.172-4.172-4.172-10.937,0-15.093
			l21.328-21.344c4.171-4.155,10.921-4.155,15.093,0c4.156,4.173,4.156,10.938,0,15.094l-21.343,21.343
			C101.576,468.265,98.842,469.328,96.107,469.328z"/>
		<path style="fill:#EC5564;" d="M138.778,469.328c-2.734,0-5.453-1.063-7.546-3.126l-21.327-21.343
			c-4.157-4.155-4.157-10.921,0-15.094c4.171-4.155,10.921-4.155,15.093,0l21.328,21.344c4.156,4.156,4.156,10.921,0,15.093
			C144.246,468.265,141.512,469.328,138.778,469.328z"/>
		<path style="fill:#EC5564;" d="M138.778,469.328c-2.734,0-5.453-1.063-7.546-3.126c-4.156-4.172-4.156-10.937,0-15.093
			l21.343-21.344c4.156-4.155,10.921-4.155,15.078,0c4.171,4.173,4.171,10.938,0,15.094l-21.328,21.343
			C144.246,468.265,141.512,469.328,138.778,469.328z"/>
		<path style="fill:#EC5564;" d="M181.449,469.328c-2.734,0-5.469-1.063-7.547-3.126l-21.327-21.343
			c-4.172-4.155-4.172-10.921,0-15.094c4.156-4.155,10.921-4.155,15.078,0l21.343,21.344c4.156,4.156,4.156,10.921,0,15.093
			C186.901,468.265,184.182,469.328,181.449,469.328z"/>
		<path style="fill:#EC5564;" d="M341.318,469.328c-2.734,0-5.453-1.063-7.547-3.126c-4.156-4.172-4.156-10.937,0-15.093
			l21.344-21.344c4.155-4.155,10.921-4.155,15.076,0c4.173,4.173,4.173,10.938,0,15.094l-21.326,21.343
			C346.771,468.265,344.053,469.328,341.318,469.328z"/>
		<path style="fill:#EC5564;" d="M383.989,469.328c-2.735,0-5.469-1.063-7.548-3.126l-21.326-21.343
			c-4.172-4.155-4.172-10.921,0-15.094c4.155-4.155,10.921-4.155,15.076,0l21.329,21.344c4.171,4.156,4.171,10.921,0,15.093
			C389.441,468.265,386.707,469.328,383.989,469.328z"/>
		<path style="fill:#EC5564;" d="M383.989,469.328c-2.735,0-5.469-1.063-7.548-3.126c-4.171-4.172-4.171-10.937,0-15.093
			l21.328-21.344c4.172-4.155,10.922-4.155,15.094,0c4.155,4.173,4.155,10.938,0,15.094l-21.343,21.343
			C389.441,468.265,386.707,469.328,383.989,469.328z"/>
		<path style="fill:#EC5564;" d="M426.643,469.328c-2.718,0-5.453-1.063-7.531-3.126l-21.343-21.343
			c-4.156-4.155-4.156-10.921,0-15.094c4.172-4.155,10.922-4.155,15.094,0l21.327,21.344c4.171,4.156,4.171,10.921,0,15.093
			C432.111,468.265,429.378,469.328,426.643,469.328z"/>
	</g>
	<polygon style="fill:#424953;" points="255.992,234.656 191.995,511.982 319.991,511.982 "/>
	<g>
		<path style="fill:#9ED36A;" d="M159.996,330.645c0,5.905-4.781,10.686-10.671,10.686c-5.891,0-10.672-4.78-10.672-10.686
			c0-5.875,4.781-10.656,10.672-10.656C155.215,319.989,159.996,324.77,159.996,330.645z"/>
		<path style="fill:#9ED36A;" d="M202.651,330.645c0,5.905-4.766,10.686-10.656,10.686s-10.671-4.78-10.671-10.686
			c0-5.875,4.781-10.656,10.671-10.656S202.651,324.77,202.651,330.645z"/>
		<path style="fill:#9ED36A;" d="M330.646,330.645c0,5.905-4.766,10.686-10.655,10.686c-5.891,0-10.672-4.78-10.672-10.686
			c0-5.875,4.781-10.656,10.672-10.656C325.881,319.989,330.646,324.77,330.646,330.645z"/>
		<path style="fill:#9ED36A;" d="M373.317,330.645c0,5.905-4.781,10.686-10.671,10.686c-5.891,0-10.657-4.78-10.657-10.686
			c0-5.875,4.767-10.656,10.657-10.656S373.317,324.77,373.317,330.645z"/>
	</g>
	<g>
		<path style="fill:#E8563F;" d="M263.93,191.993c0,5.891-4.781,10.664-10.672,10.664s-10.671-4.773-10.671-10.664
			s4.781-10.664,10.671-10.664C259.148,181.329,263.93,186.102,263.93,191.993z"/>
		<path style="fill:#E8563F;" d="M306.586,191.993c0,5.891-4.767,10.664-10.657,10.664s-10.672-4.773-10.672-10.664
			s4.781-10.664,10.672-10.664S306.586,186.102,306.586,191.993z"/>
		<path style="fill:#E8563F;" d="M221.26,191.993c0,5.891-4.781,10.664-10.672,10.664c-5.89,0-10.655-4.773-10.655-10.664
			s4.765-10.664,10.655-10.664S221.26,186.102,221.26,191.993z"/>
		<path style="fill:#E8563F;" d="M242.587,170.658c0,5.891-4.766,10.671-10.656,10.671s-10.671-4.78-10.671-10.671
			s4.781-10.664,10.671-10.664S242.587,164.767,242.587,170.658z"/>
		<path style="fill:#E8563F;" d="M285.257,170.658c0,5.891-4.78,10.671-10.671,10.671s-10.655-4.78-10.655-10.671
			s4.765-10.664,10.655-10.664S285.257,164.767,285.257,170.658z"/>
	</g>
	<polygon style="fill:#FB6D51;" points="181.324,191.993 330.646,191.993 319.991,170.658 191.995,170.658 "/>
</svg>
