<svg id="fix_1" enable-background="new 0 0 24 24" height="512" viewBox="0 0 24 24" width="512" xmlns="http://www.w3.org/2000/svg"><path d="m20.5 24h-17c-.827 0-1.5-.673-1.5-1.5v-10c0-.276.224-.5.5-.5h19c.276 0 .5.224.5.5v10c0 .827-.673 1.5-1.5 1.5zm-17.5-11v9.5c0 .275.225.5.5.5h17c.275 0 .5-.225.5-.5v-9.5z"/><path d="m22.5 13h-21c-.827 0-1.5-.673-1.5-1.5v-3c0-.827.673-1.5 1.5-1.5h21c.827 0 1.5.673 1.5 1.5v3c0 .827-.673 1.5-1.5 1.5zm-21-5c-.275 0-.5.225-.5.5v3c0 .275.225.5.5.5h21c.275 0 .5-.225.5-.5v-3c0-.275-.225-.5-.5-.5z"/><path d="m12 8c-.145 0-.283-.062-.378-.173-.095-.109-.138-.254-.117-.397.011-.075 1.129-7.43 6.995-7.43 2.584 0 3.501 1.396 3.501 2.591 0 2.246-3.103 5.409-10.001 5.409zm6.5-7c-4.112 0-5.514 4.385-5.889 5.99 5.479-.17 8.39-2.616 8.39-4.399 0-.444-.187-.81-.554-1.085-.44-.331-1.114-.506-1.947-.506z"/><path d="m12.001 8c-6.898 0-10.001-3.163-10.001-5.409 0-.754.339-1.424.953-1.885.615-.462 1.496-.706 2.548-.706 5.866 0 6.984 7.355 6.995 7.43.021.144-.022.288-.117.397-.095.111-.233.173-.378.173zm-6.5-7c-1.543 0-2.501.609-2.501 1.591 0 1.784 2.913 4.23 8.395 4.4-.363-1.615-1.73-5.991-5.894-5.991z"/><path d="m12 24c-.276 0-.5-.224-.5-.5v-16c0-.276.224-.5.5-.5s.5.224.5.5v16c0 .276-.224.5-.5.5z"/></svg>