<svg version="1.1" id="Capa_1" xmlns="http://www.w3.org/2000/svg" xmlns:xlink="http://www.w3.org/1999/xlink" x="0px" y="0px" viewBox="0 0 368.006 368.006" style="enable-background:new 0 0 368.006 368.006;" xml:space="preserve">
	<g>
		<path d="M313.019,124.904l5.64-8.464c2.456-3.672,1.464-8.648-2.216-11.096c-3.696-2.464-8.648-1.456-11.096,2.216l-4.272,6.408
			c-12.776-9.704-28.216-16.04-45.072-17.568V24c0-13.232-10.768-24-24-24h-176c-13.232,0-24,10.768-24,24v336
			c0,3.048,1.736,5.832,4.472,7.176c2.728,1.36,6,1.024,8.408-0.832l99.12-76.248l99.128,76.248
			c1.416,1.096,3.136,1.656,4.872,1.656c1.2,0,2.416-0.272,3.528-0.824c2.736-1.344,4.472-4.128,4.472-7.176v-88.408
			c44.784-4.056,80-41.768,80-87.592C336.003,161.24,327.243,140.544,313.019,124.904z M48.003,24c0-4.408,3.584-8,8-8h176
			c4.416,0,8,3.592,8,8v24h-192V24z M240.003,343.752l-91.128-70.088c-2.872-2.208-6.872-2.208-9.752,0l-91.12,70.088V64h192v32.408
			c-44.784,4.056-80,41.768-80,87.592c0,45.824,35.216,83.536,80,87.592V343.752z M248.003,256c-39.704,0-72-32.304-72-72
			s32.296-72,72-72c16.664,0,31.984,5.744,44.2,15.28l-44.576,66.872L230.403,171.2c-2.648-3.528-7.664-4.264-11.192-1.6
			c-3.536,2.648-4.256,7.664-1.6,11.2l24,32c1.504,2.016,3.88,3.2,6.4,3.2c0.072,0,0.152,0,0.216,0c2.6-0.072,5-1.4,6.44-3.56
			l49.192-73.792c10.08,12.392,16.144,28.168,16.144,45.352C320.003,223.696,287.707,256,248.003,256z"/>
	</g>
</svg>
