<svg version="1.1" id="Capa_1" xmlns="http://www.w3.org/2000/svg" xmlns:xlink="http://www.w3.org/1999/xlink" x="0px" y="0px" viewBox="0 0 368.002 368.002" style="enable-background:new 0 0 368.002 368.002;" xml:space="preserve">
	<g>
		<path d="M280.001,176h-24v-24c0-4.416-3.584-8-8-8c-4.416,0-8,3.584-8,8v24h-24c-4.416,0-8,3.584-8,8s3.584,8,8,8h24v24
			c0,4.416,3.584,8,8,8c4.416,0,8-3.584,8-8v-24h24c4.416,0,8-3.584,8-8C288.001,179.584,284.417,176,280.001,176z"/>
		<path d="M256.001,96.408V24c0-13.232-10.768-24-24-24h-176c-13.232,0-24,10.768-24,24v336c0,3.048,1.728,5.832,4.464,7.176
			c2.728,1.352,6,1.024,8.416-0.832l99.12-76.248l99.12,76.248c1.424,1.096,3.152,1.656,4.88,1.656c1.2,0,2.416-0.272,3.536-0.824
			c2.736-1.344,4.464-4.128,4.464-7.176v-88.408c44.784-4.056,80-41.768,80-87.592C336.001,138.176,300.785,100.464,256.001,96.408
			z M48.001,24c0-4.408,3.592-8,8-8h176c4.416,0,8,3.592,8,8v24h-192V24z M240.001,343.752l-91.12-70.088
			c-2.872-2.208-6.88-2.208-9.76,0l-91.12,70.088V64h192v32.408c-44.784,4.056-80,41.768-80,87.592
			c0,45.824,35.216,83.536,80,87.592V343.752z M248.001,256c-39.696,0-72-32.304-72-72s32.304-72,72-72s72,32.304,72,72
			S287.697,256,248.001,256z"/>
	</g>
</svg>
