<svg version="1.1" id="Capa_1" xmlns="http://www.w3.org/2000/svg" xmlns:xlink="http://www.w3.org/1999/xlink" x="0px" y="0px" viewBox="0 0 396.781 396.781" style="enable-background:new 0 0 396.781 396.781;" xml:space="preserve">
<g>
	<g>
		<path d="M321.111,0H75.671c-4.418,0-8,3.582-8,8v380.8c0.01,4.418,3.601,7.992,8.019,7.981c1.974-0.005,3.876-0.739,5.341-2.061
			l117.36-106.8l117.36,106.8c3.28,2.96,8.339,2.701,11.299-0.579c1.322-1.465,2.056-3.367,2.061-5.341V8
			C329.111,3.582,325.529,0,321.111,0z M284.546,124.13c-0.184,1.32-0.801,2.54-1.755,3.47l-0.16,0.4l-37.76,36.8l8.96,52
			c0.562,3.266-1.63,6.368-4.896,6.93c-1.307,0.225-2.652,0.01-3.824-0.61l-46.72-24.72l-46.72,24.56
			c-2.026,1.057-4.477,0.87-6.32-0.48c-1.842-1.334-2.772-3.596-2.4-5.84l8.88-52l-37.76-36.8c-2.373-2.313-2.423-6.111-0.11-8.485
			c0.93-0.954,2.151-1.572,3.47-1.755l52.24-7.6l23.36-47.6c1.727-2.982,5.545-4,8.527-2.273c0.943,0.546,1.727,1.33,2.273,2.273
			l23.36,47.36l52.24,7.6C282.713,117.817,285.003,120.848,284.546,124.13z"/>
	</g>
</g>
</svg>
