<svg version="1.1" id="Capa_1" xmlns="http://www.w3.org/2000/svg" xmlns:xlink="http://www.w3.org/1999/xlink" x="0px" y="0px" viewBox="0 0 396.88 396.88" style="enable-background:new 0 0 396.88 396.88;" xml:space="preserve">
	<g>
		<g>
			<path d="M321.16,0L75.72,0c-4.418,0-8,3.582-8,8v380.88c-0.011,3.191,1.875,6.084,4.8,7.36c1.011,0.431,2.101,0.649,3.2,0.64
				c1.983-0.005,3.893-0.746,5.36-2.08L198.44,288L315.8,394.8c3.28,2.96,8.339,2.701,11.299-0.579
				c1.322-1.465,2.056-3.367,2.061-5.341V8C329.16,3.582,325.578,0,321.16,0z M203.8,271.28c-3.057-2.797-7.743-2.797-10.8,0
				L83.72,370.8V16h229.44l0,354.8L203.8,271.28z"/>
		</g>
	</g>
	<g>
		<g>
			<path d="M284.334,117.488c-1.232-1.28-2.856-2.113-4.614-2.368l-51.2-7.44l-23.2-46c-1.971-3.954-6.774-5.562-10.729-3.591
				c-1.555,0.775-2.816,2.036-3.591,3.591l-22.88,46.4l-51.2,7.44c-4.372,0.634-7.403,4.693-6.768,9.066
				c0.255,1.758,1.088,3.382,2.368,4.614l37.28,35.68l-8.48,51.36c-0.724,4.359,2.222,8.479,6.58,9.203
				c1.716,0.285,3.478,0.003,5.02-0.803l45.76-24l45.76,24c3.915,2.048,8.749,0.535,10.797-3.38c0.806-1.541,1.088-3.304,0.803-5.02
				l-8.96-51.36l37.04-36.08C287.303,125.736,287.399,120.671,284.334,117.488z M232.92,156.88c-1.879,1.825-2.746,4.455-2.32,7.04
				l6.72,39.04l-35.2-18.48c-2.329-1.223-5.111-1.223-7.44,0l-35.12,18.48l6.72-39.12c0.426-2.585-0.441-5.215-2.32-7.04l-28.4-27.68
				l39.28-6.16c2.602-0.391,4.845-2.036,6-4.4l17.6-35.6l17.6,35.6c1.155,2.364,3.398,4.009,6,4.4l39.28,5.68L232.92,156.88z"/>
		</g>
	</g>
</svg>
