<svg id="bold" enable-background="new 0 0 24 24" height="512" viewBox="0 0 24 24" width="512" xmlns="http://www.w3.org/2000/svg"><path d="m1.001 24c-.335 0-.662-.168-.852-.474-.29-.47-.146-1.086.324-1.376l10.5-6.5c.393-.243.906-.186 1.233.143l3.293 3.293 5.793-5.793c.391-.391 1.023-.391 1.414 0s.391 1.023 0 1.414l-6.5 6.5c-.391.391-1.023.391-1.414 0l-3.44-3.44-9.826 6.083c-.164.102-.345.15-.525.15z"/><path d="m23 18c-.26 0-.516-.102-.707-.293l-4-4c-.286-.286-.372-.716-.217-1.09.155-.373.52-.617.924-.617h4c.553 0 1 .448 1 1v4c0 .404-.243.769-.617.924-.124.051-.254.076-.383.076z"/><path d="m10.54 12.171v.72c0 .61-.5 1.11-1.12 1.11h-1.84c-.54 0-1.12-.4-1.12-1.29v-.54z"/><path d="m13.001 6.471c0 1.35-.6 2.61-1.65 3.46-.42.34-.69.78-.78 1.24h-4.13c-.07-.45-.32-.87-.73-1.19-1.11-.87-1.74-2.18-1.71-3.6.05-2.38 2.04-4.35 4.43-4.38 1.21-.03 2.37.44 3.24 1.3.86.84 1.33 1.97 1.33 3.17z"/></svg>