<?xml version="1.0" encoding="iso-8859-1"?>
<!-- Generator: Adobe Illustrator 16.0.0, SVG Export Plug-In . SVG Version: 6.00 Build 0)  -->
<!DOCTYPE svg PUBLIC "-//W3C//DTD SVG 1.1//EN" "http://www.w3.org/Graphics/SVG/1.1/DTD/svg11.dtd">
<svg version="1.1" id="Capa_1" xmlns="http://www.w3.org/2000/svg" xmlns:xlink="http://www.w3.org/1999/xlink" x="0px" y="0px"
	 width="612.005px" height="612.006px" viewBox="0 0 612.005 612.006" style="enable-background:new 0 0 612.005 612.006;"
	 xml:space="preserve">
<g>
	<g id="_x37__11_">
		<g>
			<path d="M305.934,516.253c-96.313,0-177.413-64.681-202.395-152.909h62.158c5.906-5.734,9.002-13.494,3.096-19.229
				l-71.791-72.517c-5.906-5.734-15.482-5.734-21.388,0L4.302,344.115c-8.468,9.939-2.81,13.494,3.096,19.229h56.978
				C90.313,472.865,188.366,554.48,305.934,554.48c89.433,0,167.626-47.325,211.454-118.104l-35.991-14.373
				C443.705,478.771,379.235,516.253,305.934,516.253z M605.731,267.775h-54.34c-18.444-119.04-121.143-210.25-245.457-210.25
				c-95.874,0-178.923,54.264-220.438,133.624l35.628,14.24c35.686-65.312,105.068-109.636,184.81-109.636
				c103.137,0,188.804,74.18,206.81,172.022h-65.293c-5.905,5.734-11.563,9.29-3.096,19.229l71.312,72.518
				c5.906,5.733,15.482,5.733,21.389,0l71.791-72.518C614.734,281.27,611.637,273.51,605.731,267.775z"/>
		</g>
	</g>
</g>
<g>
</g>
<g>
</g>
<g>
</g>
<g>
</g>
<g>
</g>
<g>
</g>
<g>
</g>
<g>
</g>
<g>
</g>
<g>
</g>
<g>
</g>
<g>
</g>
<g>
</g>
<g>
</g>
<g>
</g>
</svg>
