<svg id="color" enable-background="new 41.64 164.945 512 512" height="512" viewBox="41.64 164.945 512 512" width="512" xmlns="http://www.w3.org/2000/svg"><g><g><g><path d="m415.566 328.881-4.011-1.623c-15.532-6.869-27.017-18.412-32.373-32.508-13.261-35.082 4.32-74.84 39.215-88.65 49.488-19.567 93.579 3.74 125.736 20.801 5.274 2.79 9.345 8.876 9.021 14.829-.328 5.973-3.209 11.67-8.753 13.874-20.647 8.163-29.984 22.256-39.898 37.198-9.391 14.181-19.083 28.815-37.714 36.183-15.692 6.196-34.53 6.108-51.223-.104z" fill="#8bc34a"/></g></g><g><g><path d="m503.712 207.832c-25.221-9.385-54.222-14.04-85.335-1.739-34.895 13.81-52.476 53.567-39.215 88.649.324.883.695 1.761 1.071 2.619 42.643-41.707 128.184-66.73 172.898-57.033-.307-5.491-4.155-10.885-9.011-13.453-11.929-6.312-25.514-13.501-40.408-19.043z" fill="#79aa40"/></g></g><g><g><path d="m531.721 563.747c0 8.977-31.621 29.784-72.424 50.389-51.612 26.112-117.71 51.615-151.983 51.615-5.101 0-11.219-.408-17.952-1.429h-.204c-47.125-6.12-125.667-31.825-166.265-50.187l41.006-144.435c.815-3.039 1.244-5.916 1.428-8.771 23.052 1.834 42.433 5.099 59.365 9.995 19.584 5.304 36.313 12.424 52.429 21.42 30.805 4.692 91.395 10.201 91.395 45.902 0 14.688-8.976 25.5-40.801 25.5s-86.703-10.2-86.703-10.2 45.901 31.213 86.703 31.213c38.148 0 111.591-44.881 154.432-50.797 3.06-.612 6.119-.816 8.772-.816 20.4 0 40.802 10.2 40.802 30.601z" fill="#ffcc80"/></g></g><g><g><path d="m113.509 624.949h-56.101c-8.446 0-15.3-6.854-15.3-15.3v-173.405c0-8.446 6.854-15.301 15.3-15.301 71.504 0 104.818 24.827 106.185 25.869 4.937 3.794 7.12 10.158 5.487 16.176l-40.801 150.659c-1.815 6.67-7.854 11.302-14.77 11.302z" fill="#607d8b"/></g></g><g><g><path d="m490.919 533.146c-2.653 0-5.713.204-8.772.816-42.841 5.916-116.283 50.797-154.432 50.797-40.802 0-86.703-31.213-86.703-31.213l-92.598-14.24-20.135 74.341c-.245.856-.53 1.693-.918 2.488 41.679 18.177 116.344 42.291 161.776 48.187h.204c6.754 1.021 12.873 1.429 17.973 1.429 34.273 0 100.371-25.503 151.983-51.615 40.803-20.604 72.424-41.412 72.424-50.389 0-20.401-20.402-30.601-40.802-30.601z" fill="#deb26f"/></g></g><g><g><path d="m42.107 522.945v86.704c0 8.445 6.854 15.3 15.3 15.3h56.102c6.018 0 11.383-3.509 13.872-8.834.368-.796.673-1.611.918-2.488l20.135-74.34z" fill="#546d79"/></g></g><g><g><path d="m226.08 356.437c-21.564 0-43.617-8.079-60.325-24.176-17.667-16.993-21.992-38.617-26.174-59.589-4.692-23.542-9.14-45.799-30.927-66.73-4.305-4.141-5.815-10.404-3.856-16.014 1.958-5.651 6.997-9.65 12.933-10.241l2.571-.245c48.634-4.896 109.163-10.955 157.451 35.456 15.771 15.137 25.318 38.292 25.542 61.895.223 22.604-7.774 43.168-22.503 57.917-14.503 14.505-34.374 21.727-54.712 21.727z" fill="#8bc34a"/></g></g><g><g><path d="m325.247 422.189c-7.242 0-13.648-5.164-15.016-12.507-13.137-70.933-75.584-124.199-76.195-124.709-6.487-5.488-7.304-15.116-1.877-21.583 5.447-6.447 15.096-7.283 21.563-1.876 2.917 2.468 71.484 60.997 86.58 142.558 1.55 8.304-3.938 16.3-12.261 17.81z" fill="#388e3c"/></g></g><g><g><path d="m105.002 189.295c-.061.183-.143.388-.204.591-1.938 5.61-.449 11.873 3.856 16.015 21.787 20.931 26.235 43.188 30.927 66.73 4.182 20.951 8.507 42.596 26.174 59.59 16.708 16.077 38.761 24.175 60.325 24.175 19.421 0 38.414-6.569 52.714-19.809-21.114-31.478-44.391-51.328-44.779-51.634-6.467-5.468-7.283-15.096-1.856-21.563.347-.409.693-.775 1.061-1.143-40.741-36.272-87.845-62.466-128.218-72.952z" fill="#79aa40"/></g></g><g><g><path d="m233.22 262.268c-.368.346-.714.734-1.061 1.122-5.427 6.467-4.61 16.096 1.856 21.563.388.306 23.665 20.156 44.779 51.634 13.586 20.258 26.276 45.309 31.418 73.075 1.121 5.997 5.589 10.525 11.117 11.995l7.875-.02h.02c-9.526-60.958-48.451-117.038-96.004-159.369z" fill="#317c34"/></g></g><g><g><path d="m325.268 422.147h-.042c-8.445-.041-15.279-6.896-15.26-15.341 0-3.631 1.306-89.539 96.556-146.864 7.223-4.345 16.626-2.04 20.993 5.222 4.346 7.222 2.02 16.626-5.223 20.992-80.623 48.533-81.726 120.016-81.726 120.73-.021 8.426-6.854 15.261-15.298 15.261z" fill="#388e3c"/></g></g><g><g><path d="m414.397 257.739c-2.692 0-5.405.714-7.875 2.183-95.229 57.345-96.535 143.252-96.556 146.863-.02 7.527 5.407 13.792 12.566 15.097 4.143-56.672 30.888-115.406 104.94-156.839-2.895-4.713-7.914-7.304-13.075-7.304z" fill="#317c34"/></g></g></g></svg>