<svg version="1.1" id="Layer_1" xmlns="http://www.w3.org/2000/svg" xmlns:xlink="http://www.w3.org/1999/xlink" x="0px" y="0px" viewBox="0 0 512.135 512.135" style="enable-background:new 0 0 512.135 512.135;" xml:space="preserve">
	<polygon style="fill:#CED6E0;" points="435.266,238.002 317.932,238.002 279.532,463.069 473.666,463.069 "/>
	<polygon style="fill:#F05540;" points="313.666,262.535 309.399,284.935 443.799,284.935 439.532,262.535 "/>
	<path style="fill:#FFFFFF;" d="M376.599,395.869c-23.467,0-42.667-19.2-42.667-42.667s19.2-42.667,42.667-42.667
		s42.667,19.2,42.667,42.667S400.066,395.869,376.599,395.869z"/>
	<g>
		<path style="fill:#415A6B;" d="M384.066,366.002l8.533,14.933c9.6-5.333,16-16,16-27.733h-17.067
			C390.466,358.535,388.332,363.869,384.066,366.002z"/>
		<path style="fill:#415A6B;" d="M384.066,341.469l8.533-14.933c-9.6-5.333-22.4-5.333-32,0l8.533,14.933
			C373.399,338.269,379.799,338.269,384.066,341.469z"/>
		<path style="fill:#415A6B;" d="M362.732,353.202h-17.067c0,11.733,6.4,22.4,16,27.733l8.533-14.933
			C364.866,363.869,361.666,358.535,362.732,353.202z"/>
		<circle style="fill:#415A6B;" cx="376.599" cy="353.202" r="8.533"/>
	</g>
	<path style="fill:#4EC0AA;" d="M512.066,512.135V407.602c-18.133-1.067-37.333-2.133-55.467-2.133
		c-120.533,0-228.267,58.667-296.533,106.667H512.066z"/>
	<polygon style="fill:#F3F3F3;" points="237.932,149.469 61.932,149.469 4.332,484.402 294.466,484.402 "/>
	<polygon style="fill:#F3705A;" points="55.532,185.735 50.199,219.869 249.666,219.869 243.266,185.735 "/>
	<path style="fill:#CED6E0;" d="M149.399,384.135c-34.133,0-62.933-27.733-62.933-62.933s27.733-62.933,62.933-62.933
		c34.133,0,62.933,27.733,62.933,62.933S184.599,384.135,149.399,384.135z"/>
	<g>
		<path style="fill:#415A6B;" d="M160.066,339.335l12.8,22.4c14.933-8.533,23.467-24.533,23.467-41.6h-25.6
			C170.732,328.669,166.466,336.135,160.066,339.335z"/>
		<path style="fill:#415A6B;" d="M160.066,303.069l12.8-22.4c-14.933-8.533-33.067-8.533-48,0l12.8,22.4
			C145.132,298.802,153.666,298.802,160.066,303.069z"/>
		<path style="fill:#415A6B;" d="M128.066,321.202h-25.6c0,17.067,8.533,33.067,23.467,41.6l12.8-22.4
			C132.332,336.135,128.066,328.669,128.066,321.202z"/>
		<circle style="fill:#415A6B;" cx="149.399" cy="321.202" r="13.867"/>
	</g>
	<path style="fill:#66C6B9;" d="M381.932,512.135c-74.667-54.4-213.333-96-381.867-110.933v110.933H381.932z"/>
	<g>
		<path style="fill:#CED6E0;" d="M300.866,100.402c-16,6.4-34.133,2.133-45.867-9.6c0,13.867-9.6,24.533-23.467,25.6
			c-12.8,1.067-23.467-8.533-25.6-21.333c-3.2,4.267-8.533,7.467-14.933,7.467c-4.267,0-7.467-1.067-10.667-3.2
			c0,12.8-8.533,23.467-21.333,25.6c-13.867,2.133-27.733-7.467-29.867-21.333c-2.133-12.8,5.333-25.6,18.133-28.8
			c-5.333-4.267-8.533-11.733-8.533-19.2c0-13.867,11.733-25.6,26.667-25.6c8.533,0,14.933,4.267,20.267,9.6
			c2.133-18.133,17.067-30.933,36.267-30.933c6.4,0,12.8,2.133,18.133,4.267c2.133-8.533,9.6-13.867,19.2-12.8
			c9.6,1.067,16,9.6,14.933,19.2c21.333-6.4,43.733,5.333,52.267,26.667C333.932,67.335,323.266,91.869,300.866,100.402z"/>
		<path style="fill:#CED6E0;" d="M491.799,192.135c-11.733,4.267-23.467,1.067-32-6.4c0,9.6-7.467,18.133-17.067,18.133
			c-8.533,0-17.067-6.4-18.133-14.933c-2.133,3.2-6.4,5.333-10.667,5.333c-3.2,0-5.333-1.067-7.467-2.133
			c0,8.533-6.4,17.067-14.933,18.133c-9.6,2.133-19.2-5.333-21.333-14.933c-2.133-9.6,4.267-18.133,12.8-20.267
			c-3.2-3.2-5.333-8.533-5.333-13.867c0-10.667,8.533-18.133,19.2-18.133c5.333,0,10.667,3.2,13.867,6.4
			c2.133-12.8,12.8-22.4,25.6-22.4c4.267,0,9.6,1.067,12.8,3.2c1.067-6.4,7.467-9.6,13.867-8.533s11.733,6.4,10.667,12.8
			c14.933-4.267,30.933,3.2,36.267,18.133C516.332,167.602,507.799,185.735,491.799,192.135z"/>
	</g>
</svg>
