<svg version="1.1" id="Layer_1" xmlns="http://www.w3.org/2000/svg" xmlns:xlink="http://www.w3.org/1999/xlink" x="0px" y="0px" viewBox="0 0 511.983 511.983" style="enable-background:new 0 0 511.983 511.983;" xml:space="preserve">
	<g>
		<path style="fill:#E8563F;" d="M385.439,262.663l-17.608-12.016c17.249-25.296,29.593-60.873,33.014-95.138
			c3.22-32.358-2.202-58.998-14.155-69.544c-18.295-16.141-51.7,8.531-69.997,24.687l-14.108-15.983
			c20.466-18.078,39.153-29.344,55.528-33.468c21.061-5.313,34.842,1.828,42.686,8.765c17.531,15.469,25.28,47.421,21.266,87.653
			C418.314,195.29,404.626,234.554,385.439,262.663z"/>
		<path style="fill:#E8563F;" d="M126.526,262.663c-19.171-28.108-32.858-67.373-36.608-105.044
			c-4.016-40.232,3.734-72.185,21.265-87.653c7.844-6.937,21.625-14.077,42.687-8.765c16.374,4.124,35.062,15.39,55.529,33.468
			l-14.124,15.983c-18.281-16.155-51.701-40.827-69.982-24.687c-11.953,10.546-17.374,37.186-14.156,69.544
			c3.422,34.265,15.766,69.842,33.015,95.138L126.526,262.663z"/>
	</g>
	<path style="fill:#FB6D51;" d="M384.611,201.54c-10.327-50.451-64.622-73.545-64.622-73.545V63.997L362.659,0H255.99H149.322
		l42.671,63.997v63.998c0,0-54.295,23.094-64.639,73.545c-13.547,66.138-2.609,205.07,64.639,257.101l-42.671,42.67
		c0,0,36.812,10.672,106.668,10.672c69.858,0,106.669-10.672,106.669-10.672l-42.67-42.67
		C387.22,406.61,398.174,267.678,384.611,201.54z"/>
	<path style="fill:#E8563F;" d="M191.993,458.64l-42.671,42.67c0,0,36.812,10.672,106.668,10.672
		c69.858,0,106.669-10.672,106.669-10.672l-42.67-42.67c0,0-24.672,10.671-63.999,10.671
		C216.664,469.311,191.993,458.64,191.993,458.64z"/>
	<path style="fill:#FECD57;" d="M330.66,319.989v-21.344h21.327v-21.327v-21.327v-21.343H330.66h-21.343H287.99h-21.328v21.343
		v21.327v21.327v21.344h-42.67v-21.344h21.327v-21.327v-21.327v-21.343h-21.327h-21.328h-21.343h-21.327v21.343v21.327v21.327v21.344
		h-33.218c1.063,7.125,2.313,14.249,3.797,21.327h50.748v-21.327v-21.344v-7.608v-13.719v-21.327h21.343h21.328v21.327h-21.328
		v13.719v7.608v21.344v21.327h85.326v-21.327v-21.344v-7.608v-13.719v-21.327h21.327h21.343v21.327h-21.343v13.719v7.608v21.344
		v21.327h72.092c1.469-7.078,2.733-14.202,3.796-21.327H330.66z"/>
	<g style="opacity:0.2;">
		<path style="fill:#FFFFFF;" d="M384.611,201.54c-10.327-50.451-64.622-73.545-64.622-73.545V63.997L362.659,0h-11.484
			L312.66,59.356v74.795c0,0,40.281,16.938,50.624,67.389c13.563,66.138,9.453,172.946-43.295,257.101l0,0
			C387.22,406.61,398.174,267.678,384.611,201.54z"/>
	</g>
</svg>
